<svg version="1.2" xmlns="http://www.w3.org/2000/svg" viewBox="0 0 249 148" width="249" height="148">
	<style>
		.s0 { fill: #3eb0f9 } 
		.s1 { fill: #5aa6d7 } 
		.s2 { fill: #5fa8d6 } 
		.s3 { fill: #5faad3 } 
		.s4 { fill: #5ea9d7 } 
		.s5 { fill: #60a7d6 } 
		.s6 { fill: #5faad7 } 
		.s7 { fill: #f8faf6 } 
		.s8 { fill: #f9fbfc } 
		.s9 { fill: #44acf4 } 
		.s10 { fill: #44adf4 } 
		.s11 { fill: #43acf4 } 
	</style>
	<g>
		<g>
			<path class="s0" d="m2 67.47c14.99 0 17.19-6.78 17.19-17.23v-19.78c0-18.66 11.44-27.52 27.3-27.52h3.69v11.43h-2.46c-10.38 0-14.3 6.17-14.3 16.86v18.84c0 12.83-4.77 21.37-15.71 23.49 11.28 2.41 15.71 10.22 15.71 23.79v18.66c0 11.29 5.56 17.42 14.59 17.42h2.17v11.43h-3.69c-13.85 0-27.3-7.29-27.3-27.47v-20.21c0-9.83-1.78-17.09-17.19-17.16z"/>
			<path class="s0" d="m246.8 80.33c-14.99 0-17.19 6.79-17.19 17.23v19.78c0 18.67-11.44 27.52-27.3 27.52h-3.69v-11.43h2.46c10.38 0 14.3-6.17 14.3-16.86v-18.84c0-12.83 4.77-21.37 15.72-23.49-11.25-2.37-15.72-10.22-15.72-23.79v-18.67c0-11.28-5.56-17.41-14.59-17.41h-2.17v-11.43h3.69c13.85 0 27.3 7.29 27.3 27.47v20.21c0 9.82 1.79 17.09 17.19 17.16z"/>
		</g>
	</g>
	<path class="s1" d="m97.76 128.1c-1.28 1.26-2.39 2.76-3.86 3.75-4.25 2.87-9.17 3.72-14.19 4.01-2.4 0.14-4.8 0.02-7.21 0.09-1.07 0.03-1.49-0.31-1.48-1.43q0.06-6.49-0.02-12.98c-0.01-1.12 0.39-1.49 1.47-1.43q1.62 0.09 3.24-0.04c4.41-0.32 6.68-2.6 6.9-6.99q0.23-4.68 0.23-9.36 0.01-18.83-0.01-37.66 0-11.17 0.01-22.33c0-0.53 0.05-1.05 0.08-1.67 0.56-0.06 1.03-0.14 1.5-0.14 5.46-0.01 10.93 0.03 16.4-0.04 1.41-0.01 2.01 0.33 2.01 1.9-0.05 23.45-0.04 46.9-0.07 70.36 0 4.53-1.08 8.78-3.57 12.62q-0.49 0.74-1.3 1.19c3.47-5.55 4.46-11.57 4.16-17.93-0.12-2.58-0.02-5.17-0.02-7.75q0-28.67-0.01-57.34c0-2.39 0-2.39-2.46-2.39-4.51 0-9.02-0.03-13.53 0.01-2.56 0.02-2.76 0.25-2.76 2.74 0 22.6 0.03 45.19-0.03 67.79-0.01 4.02-1.84 6.84-5.81 7.42q-2.04 0.28-4.1 0.28c-1.15 0-1.63 0.44-1.62 1.6q0.06 5.77 0 11.54c-0.01 1.06 0.44 1.36 1.41 1.31 3.17-0.14 6.36-0.05 9.51-0.41 5.23-0.6 10.17-2.04 13.9-6.15 0.28-0.31 0.81-0.39 1.23-0.57z"/>
	<path class="s2" d="m144.6 96.67c0.38 0.02 0.76 0.04 1.28 0.03 2.39-0.55 4.73-0.85 6.87-1.65 2.11-0.79 3.34-2.63 3.27-4.95-0.06-2.35-1.55-3.91-3.66-4.67-2.08-0.74-4.26-1.18-6.67-1.79-0.52-0.05-0.78-0.08-1.03-0.11-4.68-0.92-9.43-1.59-14.02-2.85-3.16-0.87-6.1-2.57-9.17-4.05q-0.03-0.22 0.18-0.2c0.63 0.21 1.17 0.34 1.63 0.59 3.91 2.15 8.14 3.3 12.49 4.11 5.04 0.95 10.09 1.84 15.11 2.89 3.31 0.68 5.83 3.32 5.95 5.93 0.1 2.22-2.05 5.66-5.27 6.51-2.85 0.75-5.62 1.32-8.6 0.92-4.69-0.63-9.01-1.73-10.79-6.86-0.43-1.22-1.24-1.56-2.48-1.48q-7.51 0.42-15.02 0.72c-1.39 0.06-1.24 0.99-1.03 1.76 0.8 2.89 1.97 5.6 3.74 8.07 5.02 6.97 12.52 9.18 20.36 10.28 4.33 0.6 8.84 0.38 13.23 0.04 6.08-0.47 11.85-2.14 16.91-5.81q6.93-5.04 7.7-13.51c0.19-2.06 0.01-4.15 0.07-6.2 0.18 0.1 0.29 0.18 0.4 0.26 1.68 6.41-0.16 11.95-4.27 16.87-4.1 4.9-9.71 7.17-15.74 8.4-9.94 2.02-19.82 1.89-29.32-2.17-7.56-3.24-12.39-8.86-14.03-17.03-0.09-0.46-0.08-0.93-0.12-1.55 1.22-0.11 2.34-0.27 3.45-0.31 4.92-0.2 9.84-0.41 14.76-0.5 0.58-0.02 1.55 0.51 1.72 1 1.71 4.96 5.53 6.81 10.49 7.29 0.31 0.01 0.46 0.04 0.86 0.07 0.41-0.02 0.58-0.03 0.75-0.05z"/>
	<path class="s3" d="m159.72 43.35c8.14 2.5 15.2 10.58 15.23 18.8q-3.74 0.22-7.49 0.41c-3.18 0.16-6.36 0.35-9.54 0.42-0.51 0.01-1.4-0.4-1.5-0.78-1.34-5.06-5.1-6.95-9.79-7.28-4.17-0.28-8.34-0.01-11.58 3.5-0.14 0.04-0.21-0.02-0.21-0.11 0-0.15 0-0.21 0.1-0.35 1.15-1.66 2.51-2.84 4.45-3.18 1.05-0.19 2.12-0.31 3.18-0.45 6.35-0.83 12.02 0.62 14.52 6.98 0.16 0.4 0.96 0.79 1.45 0.77q5.81-0.14 11.62-0.46c1.29-0.07 2.57-0.34 3.84-0.52 0.05-0.27 0.15-0.46 0.12-0.62-1.28-6.01-4.33-10.8-9.7-13.99q-2.36-1.4-4.7-2.92c0-0.08 0-0.22 0-0.22z"/>
	<path class="s4" d="m159.62 43.26c0.1 0.09 0.1 0.23-0.05 0.3-0.57 0.03-1.01 0.07-1.4-0.05-5.97-1.75-11.99-2.5-18.24-1.75-6.02 0.72-11.73 2.03-16.83 5.54-6.3 4.33-9.52 12.09-7.45 19.44 0.78 2.75 2.45 5.25 3.7 7.94 0 0.08-0.01 0.23-0.01 0.23-4.35-4.02-5.48-9.16-4.85-14.76 0.9-7.91 5.77-13.03 12.7-15.96 10.56-4.46 21.44-4.61 32.43-0.93z"/>
	<path class="s5" d="m102.61 28.66c-4 5.7-11.76 7-17.08 2.96-5.97-4.53-5.21-13.67 1.41-17.18 7.08-3.75 15.72 0.16 17.01 7.7 0.39 2.28-0.12 4.41-1.34 6.52zm-12.34 4.23c4.89 0.83 9.9-0.82 12.27-5.54 2.16-4.29-0.2-9.93-3.71-11.86-2.9-1.59-5.91-2.1-9.17-1.45-3.39 0.68-7.17 4.72-7.46 8.15-0.47 5.34 2.49 9.38 8.07 10.7z"/>
	<path class="s6" d="m134.84 58.76c-0.98 4.32 0.34 6.7 4.84 7.79 4.53 1.1 9.16 1.81 13.75 2.66 4.84 0.9 9.62 2 13.99 4.39 3.49 1.92 6.36 4.46 7.71 8.47-0.14 0.14-0.21 0.14-0.38 0.08-1.16-1.57-2.05-3.23-3.29-4.57-3.12-3.36-7.24-5.11-11.57-6.12-5.74-1.32-11.59-2.14-17.35-3.38-2.25-0.48-4.41-1.42-6.55-2.31-2.09-0.87-3.14-5.31-1.43-7.01 0.16 0 0.22 0 0.28 0z"/>
	<path class="s7" d="m144.56 83.64c0.35-0.08 0.61-0.05 0.99 0.02 0.46 0.51 0.79 0.97 1.26 1.64-1.79 0.12-3.35 0.61-4.88-1 1.02-0.22 1.78-0.38 2.63-0.66z"/>
	<path class="s2" d="m120.97 76.26c-0.43-0.31-0.86-0.62-1.3-1.07q-0.02-0.22 0.18-0.22c0.52 0.37 0.91 0.73 1.25 1.14-0.04 0.05-0.13 0.15-0.13 0.15z"/>
	<path class="s6" d="m176.09 84.54c-0.15 0.03-0.26-0.05-0.52-0.21-0.21-0.28-0.27-0.48-0.25-0.73 0.15-0.14 0.22-0.24 0.29-0.33 0.17 0.39 0.35 0.78 0.48 1.27z"/>
	<path class="s2" d="m175.61 83.15c-0.07 0.21-0.14 0.31-0.3 0.33-0.22-0.48-0.33-0.87-0.45-1.27 0.06 0 0.13 0 0.28 0 0.22 0.27 0.35 0.54 0.47 0.94z"/>
	<path class="s2" d="m119.39 74.98c-0.05-0.07-0.04-0.22 0.04-0.26 0.17 0.04 0.24 0.13 0.29 0.24 0 0-0.07 0.09-0.11 0.13-0.03 0.04-0.18-0.04-0.22-0.11z"/>
	<path class="s2" d="m121.41 76.53c-0.15 0-0.25-0.06-0.39-0.2-0.05-0.07 0.04-0.17 0.16-0.18 0.22 0.06 0.29 0.15 0.34 0.26 0 0-0.08 0.08-0.11 0.12z"/>
	<path class="s3" d="m134.89 58.71c-0.11 0.05-0.17 0.05-0.32-0.04-0.09-0.09-0.07-0.27 0.01-0.27 0.09 0 0.26 0 0.26 0 0 0 0.07 0.06 0.11 0.09 0.03 0.03-0.02 0.16-0.06 0.22z"/>
	<path class="s8" d="m144.54 96.58c-0.11 0.11-0.28 0.12-0.57 0.11 0.09-0.08 0.3-0.13 0.57-0.11z"/>
	<path class="s9" d="m97.75 128.08c-0.41 0.2-0.94 0.28-1.22 0.59-3.73 4.11-8.67 5.55-13.9 6.15-3.15 0.36-6.34 0.27-9.51 0.41-0.97 0.05-1.42-0.25-1.41-1.31q0.06-5.77 0-11.54c-0.01-1.16 0.47-1.6 1.62-1.6q2.06 0 4.1-0.28c3.97-0.58 5.8-3.4 5.81-7.42 0.06-22.6 0.03-45.19 0.03-67.79 0-2.49 0.2-2.72 2.76-2.74 4.51-0.04 9.02-0.01 13.53-0.01 2.46 0 2.46 0 2.46 2.39q0.01 28.67 0.01 57.34c0 2.58-0.1 5.17 0.02 7.75 0.3 6.36-0.69 12.38-4.29 17.92 0.02 0.13-0.02 0.12-0.01 0.14z"/>
	<path class="s10" d="m134.5 58.4c0 0-0.02 0.18-0.02 0.27-1.63 1.79-0.58 6.23 1.51 7.1 2.14 0.89 4.3 1.83 6.55 2.31 5.76 1.24 11.61 2.06 17.35 3.38 4.33 1.01 8.45 2.76 11.57 6.12 1.24 1.34 2.13 3 3.29 4.57 0.23 0.46 0.34 0.85 0.48 1.37 0.07 0.33 0.13 0.53 0.27 0.79 0.09 2.13 0.27 4.22 0.08 6.28q-0.77 8.47-7.7 13.51c-5.06 3.67-10.83 5.34-16.91 5.81-4.39 0.34-8.9 0.56-13.23-0.04-7.84-1.1-15.34-3.31-20.36-10.28-1.77-2.47-2.94-5.18-3.74-8.07-0.21-0.77-0.36-1.7 1.03-1.76q7.51-0.3 15.02-0.72c1.24-0.08 2.05 0.26 2.48 1.48 1.78 5.13 6.1 6.23 10.79 6.86 2.98 0.4 5.75-0.17 8.6-0.92 3.22-0.85 5.37-4.29 5.27-6.51-0.12-2.61-2.64-5.25-5.95-5.93-5.02-1.05-10.07-1.94-15.11-2.89-4.35-0.81-8.58-1.96-12.49-4.11-0.46-0.25-1-0.38-1.63-0.59-0.18-0.13-0.25-0.22-0.42-0.33-0.47-0.4-0.86-0.76-1.38-1.13-0.18-0.12-0.25-0.21-0.42-0.33-1.33-2.65-3-5.15-3.78-7.9-2.07-7.35 1.15-15.11 7.45-19.44 5.1-3.51 10.81-4.82 16.83-5.54 6.25-0.75 12.27 0 18.24 1.75 0.39 0.12 0.83 0.08 1.4 0.12 1.72 0.96 3.28 1.92 4.85 2.86 5.37 3.19 8.42 7.98 9.7 13.99 0.03 0.16-0.07 0.35-0.12 0.62-1.27 0.18-2.55 0.45-3.84 0.52q-5.81 0.32-11.62 0.46c-0.49 0.02-1.29-0.37-1.45-0.77-2.5-6.36-8.17-7.81-14.52-6.98-1.06 0.14-2.13 0.26-3.18 0.45-1.94 0.34-3.3 1.52-4.53 3.22-0.27 0.19-0.34 0.28-0.36 0.4z"/>
	<path class="s6" d="m134.58 58.4q-0.08-0.17 0.18-0.32c0.08 0.02 0.08 0.08 0.08 0.23 0 0.09-0.17 0.09-0.26 0.09z"/>
	<path class="s11" d="m90.12 32.86c-5.43-1.29-8.39-5.33-7.92-10.67 0.29-3.43 4.07-7.47 7.46-8.15 3.26-0.65 6.27-0.14 9.17 1.45 3.51 1.93 5.87 7.57 3.71 11.86-2.37 4.72-7.38 6.37-12.42 5.51z"/>
</svg>