<svg version="1.2" xmlns="http://www.w3.org/2000/svg" viewBox="0 0 520 148" width="520" height="148">
	<style>
		.s0 { fill: none;stroke: #a0d4f8;stroke-linejoin: round;stroke-width: 1 } 
		.s1 { fill: #45acf2 } 
	</style>
	<g>
		<g>
			<g>
				<g>
					<g>
						<path class="s0" d="m23.89 15.07c-0.11 5.53 3.34 9.94 8.34 11.73q2.33 0.83 5.2 0.89 2.87 0.05 5.23-0.69c5.06-1.59 8.68-5.86 8.79-11.39 0.11-5.52-3.34-9.93-8.34-11.72q-2.33-0.83-5.2-0.89-2.87-0.05-5.23 0.69c-5.07 1.59-8.68 5.86-8.79 11.38z"/>
						<path class="s0" d="m324.72 16.07v18.81q0 0.05-0.02 0.11-0.02 0.05-0.06 0.09-0.04 0.04-0.1 0.06-0.05 0.03-0.11 0.03h-8.68q-0.06 0-0.12 0.02-0.06 0.02-0.1 0.07-0.05 0.04-0.07 0.1-0.02 0.05-0.02 0.11v18.2q0 0.06 0.02 0.11 0.02 0.05 0.06 0.09 0.04 0.04 0.09 0.06 0.06 0.02 0.12 0.02l8.65-0.16q0.1-0.01 0.18 0.03 0.09 0.03 0.15 0.1 0.07 0.06 0.1 0.15 0.03 0.08 0.03 0.18-0.19 5.18-0.14 9.97c0.07 6.83 0.03 13.17 0.01 18.95q-0.01 5.04 0.63 9 0.75 4.54 2.54 7.45c3.34 5.41 8.86 9 15.36 10.09q2.11 0.36 3.82 0.44 7.95 0.39 16.42 0.24 0.09 0 0.16-0.03 0.08-0.03 0.14-0.09 0.05-0.07 0.08-0.14 0.03-0.08 0.03-0.16-0.4-9.17-0.05-18.87 0-0.08-0.02-0.15-0.03-0.07-0.08-0.12-0.06-0.05-0.12-0.08-0.07-0.03-0.15-0.03-4.91 0.12-8.39 0.22c-2.66 0.08-5.66-0.63-6.61-3.45q-0.63-1.85-0.62-3.31 0.1-19.21-0.02-30.21 0-0.02 0.01-0.03 0.01-0.02 0.02-0.03 0.01-0.01 0.03-0.02 0.02-0.01 0.03-0.01h15.23q0.08 0 0.16-0.03 0.08-0.03 0.14-0.09 0.06-0.06 0.09-0.14 0.04-0.08 0.04-0.16v-18.13q0-0.04-0.02-0.07-0.01-0.04-0.04-0.07-0.03-0.03-0.06-0.04-0.04-0.01-0.08-0.01-5.22 0.09-13.45 0.15-0.52 0-1.83-0.13-0.04 0-0.08-0.02-0.04-0.02-0.07-0.06-0.03-0.03-0.04-0.07-0.02-0.04-0.02-0.08v-18.73q0-0.06-0.02-0.11-0.02-0.05-0.06-0.09-0.04-0.04-0.1-0.07-0.05-0.02-0.11-0.02h-22.72q-0.03 0-0.06 0.01-0.03 0.02-0.05 0.04-0.03 0.02-0.04 0.05-0.01 0.03-0.01 0.06z"/>
						<path class="s0" d="m488.73 46.79l-0.22-11.39q0-0.04-0.02-0.07-0.01-0.04-0.04-0.07-0.03-0.02-0.07-0.04-0.03-0.01-0.07-0.01h-22.58q-0.03 0-0.06 0.01-0.03 0.01-0.05 0.03-0.02 0.02-0.03 0.05-0.01 0.03-0.01 0.06v74.62q0 0.07 0.02 0.14 0.03 0.07 0.08 0.12 0.06 0.06 0.13 0.08 0.07 0.03 0.14 0.03h22.64q0.06 0 0.1-0.02 0.05-0.02 0.09-0.05 0.04-0.04 0.06-0.09 0.02-0.05 0.02-0.1 0-32.1 0.01-34.83c0.05-6.63 1.82-13.98 8.95-16.33 4.34-1.43 9.91-1.36 14.79-1.1q0.06 0 0.11-0.01 0.05-0.02 0.09-0.06 0.03-0.04 0.05-0.08 0.03-0.05 0.03-0.11v-22.96q0-0.1-0.04-0.2-0.04-0.1-0.12-0.17-0.07-0.07-0.17-0.11-0.1-0.04-0.2-0.04-6.08 0.09-11.53 2.13-1.36 0.51-3.31 1.83-4.1 2.77-6.77 6.09-1.14 1.42-1.59 2.54-0.04 0.11-0.27 0.21-0.02 0.01-0.05 0.01-0.03 0-0.06-0.02-0.02-0.01-0.04-0.04-0.01-0.02-0.01-0.05z"/>
						<path class="s0" d="m61.17 85.77q0.6 4 1.95 7.82 1.43 4.03 4.05 6.81 4.08 4.33 9.18 6.96 4.61 2.39 10.99 3.35 6.71 1.02 13.55 0.54c5.35-0.37 10.28-1.76 14.84-4.28q11.6-6.4 11.46-19.95-0.07-6.8-3.92-11.47c-3.77-4.55-10.17-7.33-15.76-8.77q-6.24-1.62-13.08-3.21-3.09-0.73-5.47-1.85c-2.33-1.1-4.06-2.53-3.98-5.31 0.11-4.22 4.87-5.64 8.36-5.61q4.66 0.04 7.59 1.82c2.51 1.51 3.61 3.77 4.11 6.58q0.01 0.06 0.04 0.11 0.03 0.05 0.08 0.09 0.05 0.04 0.1 0.06 0.06 0.02 0.12 0.02h20.91q0.06 0 0.11-0.02 0.05-0.03 0.09-0.07 0.04-0.05 0.05-0.1 0.02-0.06 0.01-0.11c-0.38-2.43-1.06-5.86-1.96-8.06q-3.48-8.45-10.97-12.71-6.55-3.74-14.08-4.08-6.33-0.28-9.77-0.01-2.65 0.21-5.85 0.83c-8.77 1.71-17.43 7.53-19.71 16.42q-1.44 5.61-0.51 10.57 1.62 8.76 10 12.7 6.93 3.26 13.43 4.59 5.53 1.13 10.56 2.5c3.34 0.92 6.8 2.08 7.34 5.83 1.02 7.1-9.27 6.99-13.38 6.22-4.12-0.76-7.49-3.72-7.96-8.05q-0.01-0.05-0.04-0.1-0.02-0.05-0.06-0.08-0.04-0.04-0.09-0.06-0.05-0.02-0.11-0.02h-22.13q-0.02 0-0.04 0.01-0.02 0.01-0.03 0.02-0.01 0.01-0.02 0.03 0 0.02 0 0.04z"/>
						<path class="s0" d="m230.94 35.53v74.47q0 0.07 0.03 0.14 0.02 0.06 0.07 0.11 0.05 0.05 0.12 0.08 0.06 0.03 0.13 0.03h22.83q0.03 0 0.06-0.02 0.04-0.01 0.06-0.03 0.03-0.03 0.04-0.06 0.01-0.03 0.01-0.07-0.05-21.79 0.07-40.8 0.02-4.2 1.53-7.54c1.91-4.26 5.59-7.46 10.3-7.85 5.54-0.46 10.88 0.39 14.05 5.43 2.11 3.36 2.63 6.74 2.63 10.66q-0.01 25.18 0.04 32.49 0.02 3.47-0.11 7.43-0.01 0.09 0.03 0.18 0.03 0.08 0.1 0.15 0.06 0.07 0.15 0.1 0.08 0.04 0.18 0.04c4.47-0.05 9.48-0.3 13.99-0.15q4.25 0.14 8.63 0.1 0.07 0 0.14-0.03 0.07-0.03 0.12-0.08 0.05-0.05 0.07-0.12 0.03-0.07 0.02-0.14-0.09-2.66-0.09-5 0.04-17.58-0.05-35.14-0.01-2.63-0.08-4.55-0.14-3.65-0.25-4.56-0.8-6.15-3.42-12.06-1.08-2.45-2.31-4c-3.04-3.84-7.49-7.3-12.33-8.84q-3.83-1.23-7.42-1.54c-4.19-0.36-8.8-0.32-12.59 0.89q-4.67 1.49-9.08 4.59-2.54 1.79-4.37 4.51-0.03 0.04-0.08 0.06-0.05 0.01-0.09 0-0.05-0.02-0.08-0.06-0.03-0.04-0.04-0.09v-8.72q0-0.07-0.02-0.13-0.03-0.06-0.07-0.11-0.05-0.05-0.11-0.07-0.06-0.03-0.13-0.03h-22.35q-0.07 0-0.13 0.03-0.06 0.02-0.1 0.07-0.05 0.05-0.08 0.11-0.02 0.06-0.02 0.12z"/>
						<path class="s0" d="m192.67 44.33c-3.57-4.99-9.3-8.26-15.13-9.58-2.97-0.67-5.93-0.53-8.93-0.54-8-0.02-14.95 3.28-21.14 8.68-1.48 1.29-3.3 3.47-4.26 4.95q-7.14 10.92-7.12 23.93 0 3.26 0.08 4.41 0.09 1.1 0.59 4.38c1.06 7 3.87 14.69 8.68 19.9q3.18 3.44 7 5.87c2.04 1.3 3.61 2.29 5.9 3.11 5 1.79 10.25 2.07 15.42 1.79 6.39-0.35 11.7-3.3 16.46-7.65q1.4-1.27 2.39-2.96 0.03-0.04 0.07-0.06 0.04-0.02 0.09 0 0.05 0.01 0.08 0.05 0.02 0.03 0.02 0.08v9.32q0 0.07 0.03 0.14 0.03 0.06 0.08 0.11 0.05 0.05 0.12 0.08 0.06 0.03 0.13 0.03h22.3q0.04 0 0.08-0.02 0.04-0.02 0.07-0.05 0.03-0.03 0.05-0.07 0.02-0.04 0.02-0.08v-74.73q0-0.04-0.02-0.07-0.01-0.03-0.04-0.06-0.02-0.03-0.06-0.04-0.03-0.01-0.07-0.01h-22.52q-0.03 0-0.06 0.01-0.03 0.01-0.06 0.04-0.02 0.02-0.04 0.05-0.01 0.03-0.01 0.07v8.85q0 0.04-0.02 0.07-0.02 0.03-0.06 0.04-0.03 0.01-0.07 0-0.03-0.01-0.05-0.04z"/>
						<path class="s0" d="m14.22 143.47q10.42 1.1 20.09-1.86c5.76-1.76 10.34-6.02 12.77-11.46 1.99-4.46 2.32-10.35 2.3-15.72q-0.04-14.09 0-73.92 0-1.84 0.06-5.16 0-0.05-0.02-0.1-0.02-0.05-0.06-0.08-0.03-0.04-0.08-0.06-0.04-0.02-0.1-0.02-3.4-0.04-6.69 0.1c-5.4 0.23-11.04 0.02-16.27-0.11q-0.05 0-0.09 0.02-0.04 0.01-0.07 0.05-0.03 0.03-0.05 0.07-0.02 0.04-0.02 0.08 0.04 6.75 0.04 80.24 0.01 1.68-0.45 3.79-0.87 4.01-4.81 4.49-3.16 0.4-6.55 0.08-0.04-0.01-0.08 0.01-0.04 0.01-0.07 0.04-0.04 0.03-0.05 0.07-0.02 0.04-0.02 0.08v19.13q0 0.05 0.02 0.09 0.01 0.04 0.04 0.07 0.03 0.04 0.07 0.06 0.04 0.02 0.09 0.02z"/>
						<path class="s0" d="m427.12 101.03v8.94q0 0.08 0.03 0.15 0.03 0.07 0.08 0.12 0.06 0.05 0.13 0.08 0.06 0.03 0.14 0.03h22.47q0.04 0 0.07-0.02 0.04-0.01 0.07-0.04 0.03-0.03 0.04-0.07 0.02-0.03 0.02-0.07v-74.8q0-0.03-0.01-0.06-0.02-0.03-0.04-0.05-0.02-0.02-0.05-0.03-0.03-0.01-0.06-0.01h-22.8q-0.04 0-0.08 0.01-0.03 0.02-0.06 0.04-0.03 0.03-0.04 0.07-0.02 0.03-0.02 0.07 0.01 17.72-0.01 36.58c-0.01 4.49 0.05 8.33-1.69 12.3-1.18 2.69-3.59 4.78-6.42 5.98q-4.69 1.97-9.86 1.04c-5.87-1.06-9.86-6.13-10.5-11.94q-0.25-2.32-0.25-5.56-0.02-33.39 0-38.43 0-0.04-0.01-0.07-0.02-0.04-0.04-0.06-0.03-0.03-0.07-0.04-0.03-0.02-0.07-0.02h-22.68q-0.07 0-0.13 0.03-0.06 0.02-0.11 0.07-0.05 0.05-0.07 0.11-0.03 0.06-0.03 0.13 0 3.5-0.02 44.08 0 9.14 3.89 17.14 2.78 5.74 8.02 9.17 1.36 0.88 3.03 1.85c5.98 3.44 12.5 4.06 19.23 3.3q3.66-0.42 6.36-1.59c4.55-1.96 8.48-4.53 11.34-8.49q0.02-0.03 0.06-0.04 0.03-0.01 0.07 0 0.03 0.01 0.05 0.04 0.02 0.03 0.02 0.06z"/>
						<path class="s0" d="m159.46 72.53q-0.02 3.24 0.49 5.4 1.33 5.63 5.87 9.78 3.22 2.94 7.87 3.45c3.15 0.35 6.97-0.21 10.02-1.7 4.59-2.24 7.66-7.45 8.7-12.36q0.36-1.67 0.37-4.4 0.02-2.73-0.32-4.41c-1-4.91-4.02-10.16-8.58-12.45-3.03-1.52-6.85-2.12-10-1.8q-4.65 0.47-7.9 3.37-4.59 4.1-5.97 9.72-0.53 2.16-0.55 5.4z"/>
					</g>
					<path class="s1" d="m37.91 3q2.87 0.06 5.2 0.89c5 1.79 8.45 6.2 8.34 11.72-0.11 5.53-3.73 9.8-8.79 11.39q-2.36 0.74-5.23 0.69-2.87-0.06-5.2-0.89c-5-1.79-8.45-6.2-8.34-11.73 0.11-5.52 3.72-9.79 8.79-11.38q2.36-0.74 5.23-0.69z"/>
					<path class="s1" d="m324.88 15.91h22.72q0.06 0 0.11 0.02 0.06 0.03 0.1 0.07 0.04 0.04 0.06 0.09 0.02 0.05 0.02 0.11v18.73q0 0.04 0.02 0.08 0.01 0.04 0.04 0.07 0.03 0.04 0.07 0.06 0.04 0.02 0.08 0.02 1.31 0.13 1.83 0.13 8.23-0.06 13.45-0.15 0.04 0 0.08 0.01 0.03 0.01 0.06 0.04 0.03 0.03 0.04 0.07 0.02 0.03 0.02 0.07v18.13q0 0.08-0.04 0.16-0.03 0.08-0.09 0.14-0.06 0.06-0.14 0.09-0.08 0.03-0.16 0.03h-15.23q-0.01 0-0.03 0.01-0.02 0.01-0.03 0.02-0.01 0.01-0.02 0.03-0.01 0.01-0.01 0.03 0.12 11 0.02 30.21-0.01 1.46 0.62 3.31c0.95 2.82 3.95 3.53 6.61 3.45q3.48-0.1 8.39-0.22 0.08 0 0.15 0.03 0.06 0.03 0.12 0.08 0.05 0.05 0.08 0.12 0.02 0.07 0.02 0.15-0.35 9.7 0.05 18.87 0 0.08-0.03 0.16-0.03 0.07-0.08 0.14-0.06 0.06-0.14 0.09-0.07 0.03-0.16 0.03-8.47 0.15-16.42-0.24-1.71-0.08-3.82-0.44c-6.5-1.09-12.02-4.68-15.36-10.09q-1.79-2.91-2.54-7.45-0.64-3.96-0.63-9c0.02-5.78 0.06-12.12-0.01-18.95q-0.05-4.79 0.14-9.97 0-0.1-0.03-0.18-0.03-0.09-0.1-0.15-0.06-0.07-0.15-0.1-0.08-0.04-0.18-0.03l-8.65 0.16q-0.06 0-0.12-0.02-0.05-0.02-0.09-0.06-0.04-0.04-0.06-0.09-0.02-0.05-0.02-0.11v-18.2q0-0.06 0.02-0.11 0.02-0.06 0.07-0.1 0.04-0.05 0.1-0.07 0.06-0.02 0.12-0.02h8.68q0.06 0 0.11-0.03 0.06-0.02 0.1-0.06 0.04-0.04 0.06-0.09 0.02-0.06 0.02-0.11v-18.81q0-0.03 0.01-0.06 0.01-0.03 0.04-0.05 0.02-0.02 0.05-0.04 0.03-0.01 0.06-0.01z"/>
					<path class="s1" d="m488.73 46.79q0 0.03 0.01 0.05 0.02 0.03 0.04 0.04 0.03 0.02 0.06 0.02 0.03 0 0.05-0.01 0.23-0.1 0.27-0.21 0.45-1.12 1.59-2.54 2.67-3.32 6.77-6.09 1.95-1.32 3.31-1.83 5.45-2.04 11.53-2.13 0.1 0 0.2 0.04 0.1 0.04 0.17 0.11 0.08 0.07 0.12 0.17 0.04 0.1 0.04 0.2v22.96q0 0.06-0.03 0.11-0.02 0.04-0.05 0.08-0.04 0.04-0.09 0.06-0.05 0.01-0.11 0.01c-4.88-0.26-10.45-0.33-14.79 1.1-7.13 2.35-8.9 9.7-8.95 16.33q-0.01 2.73-0.01 34.83 0 0.05-0.02 0.1-0.02 0.05-0.06 0.09-0.04 0.03-0.09 0.05-0.04 0.02-0.1 0.02h-22.64q-0.07 0-0.14-0.03-0.07-0.02-0.13-0.08-0.05-0.05-0.08-0.12-0.02-0.07-0.02-0.14v-74.62q0-0.03 0.01-0.06 0.01-0.03 0.03-0.05 0.02-0.02 0.05-0.03 0.03-0.01 0.06-0.01h22.58q0.04 0 0.07 0.01 0.04 0.02 0.07 0.04 0.03 0.03 0.04 0.07 0.02 0.03 0.02 0.07z"/>
					<path class="s1" d="m61.17 85.77q0-0.02 0-0.04 0.01-0.02 0.02-0.03 0.01-0.01 0.03-0.02 0.02-0.01 0.04-0.01h22.13q0.06 0 0.11 0.02 0.05 0.02 0.09 0.06 0.04 0.03 0.06 0.08 0.03 0.05 0.04 0.1c0.47 4.33 3.84 7.29 7.96 8.05 4.11 0.77 14.4 0.88 13.38-6.22-0.54-3.75-4-4.91-7.34-5.83q-5.03-1.37-10.56-2.5-6.5-1.33-13.43-4.59-8.38-3.94-10-12.7-0.93-4.96 0.51-10.57c2.28-8.89 10.94-14.71 19.71-16.42q3.2-0.62 5.85-0.83 3.44-0.27 9.77 0.01 7.53 0.34 14.08 4.08 7.49 4.26 10.97 12.71c0.9 2.2 1.58 5.63 1.96 8.06q0.01 0.05-0.01 0.11-0.01 0.05-0.05 0.1-0.04 0.04-0.09 0.07-0.05 0.02-0.11 0.02h-20.91q-0.06 0-0.12-0.02-0.05-0.02-0.1-0.06-0.05-0.04-0.08-0.09-0.03-0.05-0.04-0.11c-0.5-2.81-1.6-5.07-4.11-6.58q-2.93-1.78-7.59-1.82c-3.49-0.03-8.25 1.39-8.36 5.61-0.08 2.78 1.65 4.21 3.98 5.31q2.38 1.12 5.47 1.85 6.84 1.59 13.08 3.21c5.59 1.44 11.99 4.22 15.76 8.77q3.85 4.67 3.92 11.47 0.14 13.55-11.46 19.95c-4.56 2.52-9.49 3.91-14.84 4.28q-6.84 0.48-13.55-0.54-6.38-0.96-10.99-3.35-5.1-2.63-9.18-6.96-2.62-2.78-4.05-6.81-1.35-3.82-1.95-7.82z"/>
					<path class="s1" d="m230.94 35.53q0-0.06 0.02-0.12 0.03-0.06 0.08-0.11 0.04-0.05 0.1-0.07 0.06-0.03 0.13-0.03h22.35q0.07 0 0.13 0.03 0.06 0.02 0.11 0.07 0.04 0.05 0.07 0.11 0.02 0.06 0.02 0.13v8.72q0.01 0.05 0.04 0.09 0.03 0.04 0.08 0.06 0.04 0.01 0.09 0 0.05-0.02 0.08-0.06 1.83-2.72 4.37-4.51 4.41-3.1 9.08-4.59c3.79-1.21 8.4-1.25 12.59-0.89q3.59 0.31 7.42 1.54c4.84 1.54 9.29 5 12.33 8.84q1.23 1.55 2.31 4 2.62 5.91 3.42 12.06 0.11 0.91 0.25 4.56 0.07 1.92 0.08 4.55 0.09 17.56 0.05 35.14 0 2.34 0.09 5 0.01 0.07-0.02 0.14-0.02 0.07-0.07 0.12-0.05 0.05-0.12 0.08-0.07 0.03-0.14 0.03-4.38 0.04-8.63-0.1c-4.51-0.15-9.52 0.1-13.99 0.15q-0.1 0-0.18-0.04-0.09-0.03-0.15-0.1-0.07-0.07-0.1-0.15-0.04-0.09-0.03-0.18 0.13-3.96 0.11-7.43-0.05-7.31-0.04-32.49c0-3.92-0.52-7.3-2.63-10.66-3.17-5.04-8.51-5.89-14.05-5.43-4.71 0.39-8.39 3.59-10.3 7.85q-1.51 3.34-1.53 7.54-0.12 19.01-0.07 40.8 0 0.04-0.01 0.07-0.01 0.03-0.04 0.06-0.02 0.02-0.06 0.03-0.03 0.02-0.06 0.02h-22.83q-0.07 0-0.13-0.03-0.07-0.03-0.12-0.08-0.05-0.05-0.07-0.11-0.03-0.07-0.03-0.14z"/>
					<path class="s1" d="m192.67 44.33q0.02 0.03 0.05 0.04 0.04 0.01 0.07 0 0.04-0.01 0.06-0.04 0.02-0.03 0.02-0.07v-8.85q0-0.04 0.01-0.07 0.02-0.03 0.04-0.05 0.03-0.03 0.06-0.04 0.03-0.01 0.06-0.01h22.52q0.04 0 0.07 0.01 0.04 0.01 0.06 0.04 0.03 0.03 0.04 0.06 0.02 0.03 0.02 0.07v74.73q0 0.04-0.02 0.08-0.02 0.04-0.05 0.07-0.03 0.03-0.07 0.05-0.04 0.02-0.08 0.02h-22.3q-0.07 0-0.13-0.03-0.07-0.03-0.12-0.08-0.05-0.05-0.08-0.11-0.03-0.07-0.03-0.14v-9.32q0-0.05-0.02-0.08-0.03-0.04-0.08-0.05-0.05-0.02-0.09 0-0.04 0.02-0.07 0.06-0.99 1.69-2.39 2.96c-4.76 4.35-10.07 7.3-16.46 7.65-5.17 0.28-10.42 0-15.42-1.79-2.29-0.82-3.86-1.81-5.9-3.11q-3.82-2.43-7-5.87c-4.81-5.21-7.62-12.9-8.68-19.9q-0.5-3.28-0.59-4.38-0.08-1.15-0.08-4.41-0.02-13.01 7.12-23.93c0.96-1.48 2.78-3.66 4.26-4.95 6.19-5.4 13.14-8.7 21.14-8.68 3 0.01 5.96-0.13 8.93 0.54 5.83 1.32 11.56 4.59 15.13 9.58zm-33.21 28.2q-0.02 3.24 0.49 5.4 1.33 5.63 5.87 9.78 3.22 2.94 7.87 3.45c3.15 0.35 6.97-0.21 10.02-1.7 4.59-2.24 7.66-7.45 8.7-12.36q0.36-1.67 0.37-4.4 0.02-2.73-0.32-4.41c-1-4.91-4.02-10.16-8.58-12.45-3.03-1.52-6.85-2.12-10-1.8q-4.65 0.47-7.9 3.37-4.59 4.1-5.97 9.72-0.53 2.16-0.55 5.4z"/>
					<path class="s1" d="m14 143.23v-19.13q0-0.04 0.02-0.08 0.01-0.04 0.05-0.07 0.03-0.03 0.07-0.04 0.04-0.02 0.08-0.01 3.39 0.32 6.55-0.08 3.94-0.48 4.81-4.49 0.46-2.11 0.45-3.79 0-73.49-0.04-80.24 0-0.04 0.02-0.08 0.02-0.04 0.05-0.07 0.03-0.04 0.07-0.05 0.04-0.02 0.09-0.02c5.23 0.13 10.87 0.34 16.27 0.11q3.29-0.14 6.69-0.1 0.06 0 0.1 0.02 0.05 0.02 0.08 0.06 0.04 0.03 0.06 0.08 0.02 0.05 0.02 0.1-0.06 3.32-0.06 5.16-0.04 59.83 0 73.92c0.02 5.37-0.31 11.26-2.3 15.72-2.43 5.44-7.01 9.7-12.77 11.46q-9.67 2.96-20.09 1.86-0.05 0-0.09-0.02-0.04-0.02-0.07-0.06-0.03-0.03-0.04-0.07-0.02-0.04-0.02-0.09z"/>
					<path class="s1" d="m427.12 101.03q0-0.03-0.02-0.06-0.02-0.03-0.05-0.04-0.04-0.01-0.07 0-0.04 0.01-0.06 0.04c-2.86 3.96-6.79 6.53-11.34 8.49q-2.7 1.17-6.36 1.59c-6.73 0.76-13.25 0.14-19.23-3.3q-1.67-0.97-3.03-1.85-5.24-3.43-8.02-9.17-3.89-8-3.89-17.14 0.02-40.58 0.02-44.08 0-0.07 0.03-0.13 0.02-0.06 0.07-0.11 0.05-0.05 0.11-0.07 0.06-0.03 0.13-0.03h22.68q0.04 0 0.07 0.02 0.04 0.01 0.07 0.04 0.02 0.02 0.04 0.06 0.01 0.03 0.01 0.07-0.02 5.04 0 38.43 0 3.24 0.25 5.56c0.64 5.81 4.63 10.88 10.5 11.94q5.17 0.93 9.86-1.04c2.83-1.2 5.24-3.29 6.42-5.98 1.74-3.97 1.68-7.81 1.69-12.3q0.02-18.86 0.01-36.58 0-0.04 0.02-0.07 0.01-0.04 0.04-0.07 0.03-0.02 0.06-0.04 0.04-0.01 0.08-0.01h22.8q0.03 0 0.06 0.01 0.03 0.01 0.05 0.03 0.02 0.02 0.04 0.05 0.01 0.03 0.01 0.06v74.8q0 0.04-0.02 0.07-0.01 0.04-0.04 0.07-0.03 0.03-0.07 0.04-0.03 0.02-0.07 0.02h-22.47q-0.08 0-0.14-0.03-0.07-0.03-0.13-0.08-0.05-0.05-0.08-0.12-0.03-0.07-0.03-0.15z"/>
				</g>
			</g>
		</g>
	</g>
</svg>