<svg version="1.2" xmlns="http://www.w3.org/2000/svg" viewBox="0 0 1 1" width="1" height="1"><defs><clipPath clipPathUnits="userSpaceOnUse" id="cp1"><path d=""/></clipPath><clipPath clipPathUnits="userSpaceOnUse" id="cp2"><path d="m1.39 0.94q0.01-0.05 0.03-0.09 0.02-0.07 0.03-0.13 0.01-0.01 0-0.02c-0.12-0.26 0-0.58 0.24-0.64 0.21-0.05 0.4 0.11 0.44 0.35 0.03 0.24-0.1 0.46-0.3 0.5q-0.12 0.02-0.23-0.04-0.01-0.01-0.02 0-0.09 0.03-0.18 0.06 0 0.01-0.01 0.01zm0.09-0.11q0.01 0 0.02 0 0.04-0.02 0.09-0.04 0.01 0 0.02 0 0.11 0.08 0.23 0.05c0.16-0.05 0.26-0.24 0.23-0.42-0.03-0.2-0.19-0.33-0.36-0.29-0.21 0.04-0.32 0.34-0.2 0.56q0.01 0.01 0.01 0.02-0.02 0.06-0.04 0.12zm0.11-0.45q0-0.04 0.03-0.07 0.02-0.03 0.05-0.02 0.01 0 0.01 0.01 0.02 0.04 0.03 0.09 0 0.01 0 0.01-0.01 0.02-0.02 0.04-0.01 0.01 0 0.02 0.04 0.09 0.12 0.13 0.01 0 0.02-0.01 0.01-0.02 0.02-0.04 0.01-0.01 0.02 0 0.04 0.02 0.08 0.04 0 0 0 0.02 0 0.07-0.06 0.08-0.03 0.01-0.06 0-0.13-0.04-0.2-0.18-0.03-0.04-0.04-0.09 0-0.01 0-0.03z"/></clipPath><clipPath clipPathUnits="userSpaceOnUse" id="cp3"><path d="m1.39 0.94q0.01-0.05 0.03-0.09 0.02-0.07 0.03-0.13 0.01-0.01 0-0.02c-0.12-0.26 0-0.58 0.24-0.64 0.21-0.05 0.4 0.11 0.44 0.35 0.03 0.24-0.1 0.46-0.3 0.5q-0.12 0.02-0.23-0.04-0.01-0.01-0.02 0-0.09 0.03-0.18 0.06 0 0.01-0.01 0.01zm0.09-0.11q0.01 0 0.02 0 0.04-0.02 0.09-0.04 0.01 0 0.02 0 0.11 0.08 0.23 0.05c0.16-0.05 0.26-0.24 0.23-0.42-0.03-0.2-0.19-0.33-0.36-0.29-0.21 0.04-0.32 0.34-0.2 0.56q0.01 0.01 0.01 0.02-0.02 0.06-0.04 0.12zm0.11-0.45q0-0.04 0.03-0.07 0.02-0.03 0.05-0.02 0.01 0 0.01 0.01 0.02 0.04 0.03 0.09 0 0.01 0 0.01-0.01 0.02-0.02 0.04-0.01 0.01 0 0.02 0.04 0.09 0.12 0.13 0.01 0 0.02-0.01 0.01-0.02 0.02-0.04 0.01-0.01 0.02 0 0.04 0.02 0.08 0.04 0 0 0 0.02 0 0.07-0.06 0.08-0.03 0.01-0.06 0-0.13-0.04-0.2-0.18-0.03-0.04-0.04-0.09 0-0.01 0-0.03z"/></clipPath><linearGradient id="P" gradientUnits="userSpaceOnUse"/><linearGradient id="g1" x2="1" href="#P" gradientTransform="matrix(.831,0,0,.928,1.33,.494)"><stop stop-color="#1bb364"/><stop offset=".06" stop-color="#1bb364"/><stop offset=".08" stop-color="#1bb364"/><stop offset=".09" stop-color="#1bb464"/><stop offset=".09" stop-color="#1ab464"/><stop offset=".1" stop-color="#1ab564"/><stop offset=".11" stop-color="#1ab664"/><stop offset=".12" stop-color="#1ab664"/><stop offset=".13" stop-color="#1ab764"/><stop offset=".13" stop-color="#19b764"/><stop offset=".14" stop-color="#19b864"/><stop offset=".15" stop-color="#19b964"/><stop offset=".16" stop-color="#19b964"/><stop offset=".16" stop-color="#18ba64"/><stop offset=".17" stop-color="#18ba64"/><stop offset=".18" stop-color="#18bb64"/><stop offset=".19" stop-color="#18bc64"/><stop offset=".2" stop-color="#17bc64"/><stop offset=".2" stop-color="#17bd64"/><stop offset=".21" stop-color="#17bd64"/><stop offset=".22" stop-color="#17be64"/><stop offset=".23" stop-color="#16bf64"/><stop offset=".23" stop-color="#16bf64"/><stop offset=".24" stop-color="#16c064"/><stop offset=".25" stop-color="#16c064"/><stop offset=".26" stop-color="#16c164"/><stop offset=".27" stop-color="#15c264"/><stop offset=".27" stop-color="#15c264"/><stop offset=".28" stop-color="#15c364"/><stop offset=".29" stop-color="#15c364"/><stop offset=".3" stop-color="#14c464"/><stop offset=".3" stop-color="#14c564"/><stop offset=".31" stop-color="#14c564"/><stop offset=".32" stop-color="#14c664"/><stop offset=".33" stop-color="#13c664"/><stop offset=".34" stop-color="#13c764"/><stop offset=".34" stop-color="#13c864"/><stop offset=".35" stop-color="#13c864"/><stop offset=".36" stop-color="#12c964"/><stop offset=".37" stop-color="#12c964"/><stop offset=".38" stop-color="#12ca64"/><stop offset=".38" stop-color="#12cb64"/><stop offset=".39" stop-color="#12cb64"/><stop offset=".4" stop-color="#11cc64"/><stop offset=".41" stop-color="#11cc64"/><stop offset=".41" stop-color="#11cd64"/><stop offset=".42" stop-color="#11ce64"/><stop offset=".43" stop-color="#10ce64"/><stop offset=".44" stop-color="#10cf64"/><stop offset=".45" stop-color="#10cf64"/><stop offset=".45" stop-color="#10d064"/><stop offset=".46" stop-color="#0fd164"/><stop offset=".47" stop-color="#0fd164"/><stop offset=".48" stop-color="#0fd264"/><stop offset=".48" stop-color="#0fd264"/><stop offset=".49" stop-color="#0ed364"/><stop offset=".5" stop-color="#0ed464"/><stop offset=".51" stop-color="#0ed464"/><stop offset=".52" stop-color="#0ed564"/><stop offset=".52" stop-color="#0dd664"/><stop offset=".53" stop-color="#0dd665"/><stop offset=".54" stop-color="#0dd765"/><stop offset=".55" stop-color="#0dd765"/><stop offset=".55" stop-color="#0dd865"/><stop offset=".56" stop-color="#0cd965"/><stop offset=".57" stop-color="#0cd965"/><stop offset=".58" stop-color="#0cda65"/><stop offset=".59" stop-color="#0cda65"/><stop offset=".59" stop-color="#0bdb65"/><stop offset=".6" stop-color="#0bdc65"/><stop offset=".61" stop-color="#0bdc65"/><stop offset=".62" stop-color="#0bdd65"/><stop offset=".63" stop-color="#0add65"/><stop offset=".63" stop-color="#0ade65"/><stop offset=".64" stop-color="#0adf65"/><stop offset=".65" stop-color="#0adf65"/><stop offset=".66" stop-color="#09e065"/><stop offset=".66" stop-color="#09e065"/><stop offset=".67" stop-color="#09e165"/><stop offset=".68" stop-color="#09e265"/><stop offset=".69" stop-color="#09e265"/><stop offset=".7" stop-color="#08e365"/><stop offset=".7" stop-color="#08e365"/><stop offset=".71" stop-color="#08e465"/><stop offset=".72" stop-color="#08e565"/><stop offset=".73" stop-color="#07e565"/><stop offset=".73" stop-color="#07e665"/><stop offset=".74" stop-color="#07e665"/><stop offset=".75" stop-color="#07e765"/><stop offset=".76" stop-color="#06e865"/><stop offset=".77" stop-color="#06e865"/><stop offset=".77" stop-color="#06e965"/><stop offset=".78" stop-color="#06e965"/><stop offset=".79" stop-color="#05ea65"/><stop offset=".8" stop-color="#05eb65"/><stop offset=".8" stop-color="#05eb65"/><stop offset=".81" stop-color="#05ec65"/><stop offset=".82" stop-color="#05ec65"/><stop offset=".83" stop-color="#04ed65"/><stop offset=".84" stop-color="#04ee65"/><stop offset=".84" stop-color="#04ee65"/><stop offset=".85" stop-color="#04ef65"/><stop offset=".86" stop-color="#03ef65"/><stop offset=".87" stop-color="#03f065"/><stop offset=".88" stop-color="#03f165"/><stop offset=".88" stop-color="#03f165"/><stop offset=".89" stop-color="#02f265"/><stop offset=".9" stop-color="#02f265"/><stop offset=".91" stop-color="#02f365"/><stop offset=".91" stop-color="#02f465"/><stop offset=".92" stop-color="#01f465"/><stop offset=".93" stop-color="#01f565"/><stop offset=".94" stop-color="#01f565"/><stop offset=".95" stop-color="#01f665"/><stop offset=".95" stop-color="#01f765"/><stop offset=".96" stop-color="#00f765"/><stop offset=".97" stop-color="#00f865"/><stop offset="1" stop-color="#00f865"/></linearGradient></defs><style>.a{fill:#fff}.b{fill:#39546a}.c{fill:url(#g1)}</style><path class="a" d="m-2.3 0.9q0 0 0-0.1 0 0 0-0.1 0 0 0 0c-0.1-0.3 0-0.6 0.3-0.6 0.2-0.1 0.4 0.1 0.4 0.3 0 0.2-0.1 0.5-0.3 0.5q-0.1 0-0.2 0 0 0-0.1 0 0 0-0.1 0 0 0 0 0zm0-0.1q0.1 0 0.1 0 0 0 0.1 0 0 0 0 0 0.1 0.1 0.2 0c0.2 0 0.3-0.2 0.2-0.4 0-0.2-0.2-0.3-0.3-0.3-0.2 0.1-0.3 0.4-0.2 0.6q0 0 0 0 0 0.1-0.1 0.1z"/><path class="a" d="m-2.1 0.4q0-0.1 0-0.1 0 0 0 0 0 0 0 0 0.1 0 0.1 0.1 0 0 0 0 0 0 0 0-0.1 0-0.1 0.1 0.1 0 0.2 0.1 0 0 0 0 0 0 0-0.1 0 0 0 0 0.1 0.1 0.1 0.1 0 0 0 0 0 0.1 0 0.1-0.1 0-0.1 0-0.1-0.1-0.2-0.2 0 0 0-0.1 0 0 0 0z"/><path class="b" d="m-1.1 0.9q0 0 0-0.1 0 0 0.1-0.1 0 0 0 0c-0.2-0.3 0-0.6 0.2-0.6 0.2-0.1 0.4 0.1 0.4 0.3 0.1 0.2-0.1 0.5-0.3 0.5q-0.1 0-0.2 0 0 0 0 0-0.1 0-0.2 0 0 0 0 0zm0.1-0.1q0 0 0 0 0.1 0 0.1 0 0 0 0 0 0.1 0.1 0.2 0c0.2 0 0.3-0.2 0.3-0.4-0.1-0.2-0.2-0.3-0.4-0.3-0.2 0.1-0.3 0.4-0.2 0.6q0 0 0 0 0 0.1 0 0.1z"/><path class="b" d="m-0.9 0.4q0-0.1 0-0.1 0 0 0.1 0 0 0 0 0 0 0 0 0.1 0 0 0 0 0 0 0 0 0 0 0 0.1 0 0 0.1 0.1 0 0 0 0 0 0 0.1-0.1 0 0 0 0 0 0.1 0.1 0.1 0 0 0 0 0 0.1-0.1 0.1 0 0-0.1 0-0.1-0.1-0.2-0.2 0 0 0-0.1 0 0 0 0z"/><path  d="m0.1 0.9q0.1 0 0.1-0.1 0 0 0-0.1 0 0 0 0c-0.1-0.3 0-0.6 0.2-0.6 0.2-0.1 0.4 0.1 0.5 0.3 0 0.2-0.1 0.5-0.3 0.5q-0.1 0-0.2 0-0.1 0-0.1 0-0.1 0-0.1 0 0 0-0.1 0zm0.1-0.1q0 0 0.1 0 0 0 0 0 0.1 0 0.1 0 0.1 0.1 0.2 0c0.2 0 0.3-0.2 0.2-0.4 0-0.2-0.2-0.3-0.3-0.3-0.2 0.1-0.4 0.4-0.2 0.6q0 0 0 0 0 0.1-0.1 0.1z"/><path  d="m0.3 0.4q0-0.1 0.1-0.1 0 0 0 0 0 0 0 0 0.1 0 0.1 0.1 0 0 0 0 0 0-0.1 0 0 0 0 0.1 0.1 0 0.2 0.1 0 0 0 0 0 0 0-0.1 0 0 0 0 0.1 0.1 0.1 0.1 0 0 0 0 0 0.1-0.1 0.1 0 0 0 0-0.1-0.1-0.2-0.2 0 0-0.1-0.1 0 0 0 0z"/><g clip-path="url(#cp1)"><g clip-path="url(#cp2)"><g clip-path="url(#cp3)"><path fill-rule="evenodd" class="c" d="m2.2 0v0.9h-0.9v-0.9z"/></g></g></g></svg>